<svg version="1.2" baseProfile="tiny-ps" xmlns="http://www.w3.org/2000/svg" viewBox="0 0 320 320" width="320" height="320">
	<title>thist</title>
	<style>
		tspan { white-space:pre }
		.shp0 { fill: #418fd9 } 
		.shp1 { fill: #4ca9ff } 
		.shp2 { fill: #3d87cc } 
		.shp3 { fill: #3676b3 } 
		.shp4 { fill: #ffffff } 
	</style>
	<path id="Shape 1" class="shp0" d="M80 20L120 20L120 300L80 300L80 20Z" />
	<path id="Shape 2" class="shp1" d="M40 100L200 100L200 140L40 140L40 100Z" />
	<path id="Shape 2 copy" class="shp2" d="M80 180L200 180L200 220L80 220L80 180Z" />
	<path id="Shape 2 copy 2" class="shp3" d="M120 260L280 260L280 300L120 300L120 260Z" />
	<path id="Shape 3" class="shp4" d="M52 120C52 115.58 55.58 112 60 112L60 112C64.42 112 68 115.58 68 120L68 120C68 124.42 64.42 128 60 128L60 128C55.58 128 52 124.42 52 120L52 120Z" />
	<path id="Shape 4" class="shp4" d="M92 202C92 197.58 95.58 194 100 194L100 194C104.42 194 108 197.58 108 202L108 202C108 206.42 104.42 210 100 210L100 210C95.58 210 92 206.42 92 202L92 202Z" />
	<path id="Shape 4 copy" class="shp4" d="M132 280C132 275.58 135.58 272 140 272L140 272C144.42 272 148 275.58 148 280L148 280C148 284.42 144.42 288 140 288L140 288C135.58 288 132 284.42 132 280L132 280Z" />
</svg>